<?xml version="1.0" encoding="utf-8"?>
<!-- Generator: Adobe Illustrator 24.1.3, SVG Export Plug-In . SVG Version: 6.00 Build 0)  -->
<svg version="1.1" id="Layer_1" xmlns="http://www.w3.org/2000/svg" xmlns:xlink="http://www.w3.org/1999/xlink" x="0px" y="0px"
	 viewBox="0 0 982.2 220.7" style="enable-background:new 0 0 982.2 220.7;" xml:space="preserve">
<style type="text/css">
	.st0{fill:#0F1F38;}
	.st1{fill:#F55449;}
</style>
<g>
	<path class="st0" d="M85.5,184.5c-8.6,0-15.6-7-15.6-15.6v-64.1h34.9V69.8H69.8V34.9H34.9v134c0,27.9,22.7,50.6,50.6,50.6
		s50.6-22.7,50.6-50.6h-34.9C101.1,177.5,94.1,184.5,85.5,184.5z"/>
	<rect class="st1" width="34.9" height="34.9"/>
	<path class="st0" d="M294.7,148.3c-0.2-2.6-0.4-5.1-0.9-7.6c-5.5-31.7-33-55.9-66.2-55.9c-33.2,0-60.2,24.2-65.7,55.9
		c-0.4,2.5-0.9,5.2-0.9,7.7c0,0.6,0,1.1,0,1.8c0.2,6.1,0.5,11.9,2.1,17.5c8.5,29.8,35.9,51.7,68.4,51.7c21.8,0,41.3-9.9,54.4-25.5
		l-31.7-17.4c-6.1,5.4-13.6,10.1-26.2,9.9c-12.7-0.2-23.2-8-27-18.7h54.1l7,0c0,0,0,0,0,0h8.4H293h1.9V154h-0.1
		c0-0.6,0.1-1.2,0.1-1.8C294.9,150.9,294.8,149.6,294.7,148.3z M197.3,140.7c4.6-12.2,13.1-23,30.6-23c17.7,0,25.3,10.8,29.9,23
		H197.3z"/>
	<path class="st0" d="M358.7,170.1V34.9h-34.9v135.1c0,27.9,23.5,50.7,52.3,50.7v-34.9C366.5,185.8,358.7,178.8,358.7,170.1z"/>
	<path class="st0" d="M569.8,170.1V34.9h-34.9v135.1c0,27.9,23.5,50.7,52.3,50.7v-34.9C577.6,185.8,569.8,178.8,569.8,170.1z"/>
	<path class="st0" d="M947.3,84.7v74.1c0,14.2-11.5,25.7-25.7,25.7c-14.2,0-25.7-11.5-25.7-25.7V84.7h-34.9v74.1
		c0,14.2-11.5,25.7-25.7,25.7c-14.2,0-25.8-11.5-25.8-25.7V84.7h-34.9v74.1c0,33.4,27.2,60.7,60.7,60.7c16.9,0,32.2-7,43.2-18.2
		c11,11.2,26.3,18.2,43.2,18.2c33.4,0,60.7-27.2,60.7-60.7V84.7H947.3z"/>
	<path class="st0" d="M672.3,84.9c-37.1,0-67.3,30.2-67.3,67.3c0,37.1,30.2,67.3,67.3,67.3c37.1,0,67.3-30.2,67.3-67.3
		C739.6,115.1,709.4,84.9,672.3,84.9z M672.3,184.5c-17.8,0-32.4-14.5-32.4-32.4s14.5-32.4,32.4-32.4s32.4,14.5,32.4,32.4
		C704.7,170,690.1,184.5,672.3,184.5z"/>
	<path class="st0" d="M463.4,104.8V85.5c0-8.6,7-15.6,15.6-15.6H498V34.9H479c-27.9,0-50.5,22.7-50.5,50.6h0v19.3h-34.9v34.9h34.9
		v79h34.9v-79h35v-34.9L463.4,104.8L463.4,104.8z"/>
</g>
</svg>
